<svg xmlns="http://www.w3.org/2000/svg" xmlns:xlink="http://www.w3.org/1999/xlink" width="18" height="18" viewBox="0 0 18 18">
  <defs>
    <clipPath id="clip-path">
      <rect id="Rectangle_5917" data-name="Rectangle 5917" width="18" height="18" transform="translate(575 1044)" fill="#fff" stroke="#707070" stroke-width="1"/>
    </clipPath>
  </defs>
  <g id="Mask_Group_928" data-name="Mask Group 928" transform="translate(-575 -1044)" clip-path="url(#clip-path)">
    <path id="Path_14490" data-name="Path 14490" d="M14.848,19.137h-1.68V18.3H6.449v.84H4.77V18.3H3.93a1.679,1.679,0,0,1-1.68-1.68V5.7A1.679,1.679,0,0,1,3.93,4.02h2.52V2.34a.84.84,0,0,1,.84-.84h5.039a.84.84,0,0,1,.84.84V4.02h2.52a1.679,1.679,0,0,1,1.68,1.68V16.617a1.679,1.679,0,0,1-1.68,1.68h-.84ZM15.688,5.7H3.93V16.617H15.688Zm-4.2-2.52H8.129v.84h3.359Z" transform="translate(574.25 1042.5)" fill="#a4a4a4" stroke="#fff" stroke-width="0.4"/>
    <path id="Path_14537" data-name="Path 14537" d="M6.449,4.02V2.34a.84.84,0,0,1,.84-.84h5.039a.84.84,0,0,1,.84.84V4.02Zm5.039-.84H8.129v.84h3.359Z" transform="translate(574.25 1042.5)" fill="#eb6c6f" stroke="#fff" stroke-width="0.4"/>
    <path id="Path_14538" data-name="Path 14538" d="M8.129,7.379v7.559H6.449V7.379Zm5.039,0v7.559h-1.68V7.379Z" transform="translate(574.25 1042.5)" fill="#eb6c6f" stroke="#fff" stroke-width="0.4"/>
  </g>
</svg>
