<svg xmlns="http://www.w3.org/2000/svg" xmlns:xlink="http://www.w3.org/1999/xlink" width="20" height="20" viewBox="0 0 20 20">
  <defs>
    <clipPath id="clip-path">
      <rect id="Rectangle_5903" data-name="Rectangle 5903" width="20" height="20" transform="translate(0 0.016)" fill="#fff" stroke="#707070" stroke-width="1"/>
    </clipPath>
  </defs>
  <g id="Mask_Group_832" data-name="Mask Group 832" transform="translate(0 -0.016)" clip-path="url(#clip-path)">
    <path id="形状" d="M8.478,4.677a8.75,8.75,0,0,1-.561,4.128,15.872,15.872,0,0,0-1.382,4.536,6.182,6.182,0,0,0,1.005,3.9,4.782,4.782,0,0,0,3.834,1.889h2.473A4.87,4.87,0,0,0,18.7,14.663l.352-4.22a.974.974,0,0,0-.971-1.055H11.894a1.464,1.464,0,0,1-1.462-1.454,7.016,7.016,0,0,0-.383-2.981c-.389-.779-.753-.923-1.077-.923C8.68,4.031,8.447,4.414,8.478,4.677Zm.494-2.594a3.145,3.145,0,0,1,2.819,2,7.928,7.928,0,0,1,.581,3.358h5.709A2.922,2.922,0,0,1,20.994,10.6l-.352,4.22a6.818,6.818,0,0,1-6.794,6.252H11.374a6.757,6.757,0,0,1-4.935-2.122,5.4,5.4,0,0,1-1.363.174A2.973,2.973,0,0,1,2.52,17.562a7.374,7.374,0,0,1-.853-3.79,7.374,7.374,0,0,1,.853-3.79A2.973,2.973,0,0,1,5.076,8.414a3.192,3.192,0,0,1,.855.13,7.627,7.627,0,0,0,.613-3.637A2.561,2.561,0,0,1,8.972,2.083Zm-3.705,8.3a1.039,1.039,0,0,0-1.079.6,5.506,5.506,0,0,0-.573,2.784,5.506,5.506,0,0,0,.573,2.784,1.044,1.044,0,0,0,.888.625q.093,0,.184,0a8.94,8.94,0,0,1-.67-3.949A12.545,12.545,0,0,1,5.266,10.386Z" transform="translate(-1.099 -1.604)" fill="#76a646" stroke="#eff4e9" stroke-width="0.6" fill-rule="evenodd"/>
  </g>
</svg>
