<svg xmlns="http://www.w3.org/2000/svg" xmlns:xlink="http://www.w3.org/1999/xlink" width="20" height="20" viewBox="0 0 20 20">
  <defs>
    <clipPath id="clip-path">
      <rect id="Rectangle_13" data-name="Rectangle 13" width="20" height="20" transform="translate(732.209 744.462)" fill="#fff" stroke="#707070" stroke-width="1"/>
    </clipPath>
  </defs>
  <g id="Mask_Group_8" data-name="Mask Group 8" transform="translate(-732.209 -744.462)" clip-path="url(#clip-path)">
    <g id="calendar-svgrepo-com" transform="translate(732.209 745.075)">
      <path id="Path_19" data-name="Path 19" d="M12.825,10.767a.918.918,0,1,0-.918-.918A.918.918,0,0,0,12.825,10.767Z" transform="translate(1.636 0.481)" fill="#1a1a1a"/>
      <path id="Path_20" data-name="Path 20" d="M12.825,13.743a.918.918,0,1,0-.918-.918A.918.918,0,0,0,12.825,13.743Z" transform="translate(1.636 1.177)" fill="#1a1a1a"/>
      <path id="Path_21" data-name="Path 21" d="M10.022,9.848A.918.918,0,1,1,9.1,8.93.918.918,0,0,1,10.022,9.848Z" transform="translate(0.766 0.481)" fill="#1a1a1a"/>
      <path id="Path_22" data-name="Path 22" d="M10.022,12.825a.918.918,0,1,1-.918-.918A.918.918,0,0,1,10.022,12.825Z" transform="translate(0.766 1.177)" fill="#1a1a1a"/>
      <path id="Path_23" data-name="Path 23" d="M5.383,10.767a.918.918,0,1,0-.918-.918A.918.918,0,0,0,5.383,10.767Z" transform="translate(-0.104 0.481)" fill="#1a1a1a"/>
      <path id="Path_24" data-name="Path 24" d="M5.383,13.743a.918.918,0,1,0-.918-.918A.918.918,0,0,0,5.383,13.743Z" transform="translate(-0.104 1.177)" fill="#1a1a1a"/>
      <path id="Path_25" data-name="Path 25" d="M6.21,1.3a.689.689,0,0,1,.689.689v.7c.608-.012,1.278-.012,2.014-.012h3.777c.737,0,1.406,0,2.014.012v-.7a.689.689,0,1,1,1.377,0V2.75q.358.027.679.07a4.326,4.326,0,0,1,2.635,1.137,4.326,4.326,0,0,1,1.137,2.635,33.556,33.556,0,0,1,.141,4.07V12.6a33.558,33.558,0,0,1-.141,4.07,4.326,4.326,0,0,1-1.137,2.635,4.326,4.326,0,0,1-2.635,1.137,33.555,33.555,0,0,1-4.07.141H8.913a33.557,33.557,0,0,1-4.07-.141,4.326,4.326,0,0,1-2.635-1.137,4.326,4.326,0,0,1-1.137-2.635A33.538,33.538,0,0,1,.93,12.6v-1.94a33.539,33.539,0,0,1,.141-4.07A4.325,4.325,0,0,1,2.208,3.957,4.325,4.325,0,0,1,4.843,2.82q.321-.043.679-.07V1.991A.689.689,0,0,1,6.21,1.3ZM5.026,4.185a2.982,2.982,0,0,0-1.845.746,2.982,2.982,0,0,0-.746,1.845c-.021.156-.039.321-.053.5H19.219c-.015-.174-.032-.339-.053-.5a2.981,2.981,0,0,0-.746-1.845,2.982,2.982,0,0,0-1.845-.746,33.05,33.05,0,0,0-3.938-.128H8.964A33.048,33.048,0,0,0,5.026,4.185ZM2.308,10.714c0-.784,0-1.467.012-2.066H19.282c.012.6.012,1.282.012,2.066V12.55a33.043,33.043,0,0,1-.128,3.938,2.981,2.981,0,0,1-.746,1.845,2.981,2.981,0,0,1-1.845.746,33.041,33.041,0,0,1-3.938.128H8.964a33.04,33.04,0,0,1-3.938-.128,2.981,2.981,0,0,1-1.845-.746,2.982,2.982,0,0,1-.746-1.845,33.049,33.049,0,0,1-.128-3.938Z" transform="translate(-0.93 -1.302)" fill="#1a1a1a" fill-rule="evenodd"/>
    </g>
  </g>
</svg>
