<svg xmlns="http://www.w3.org/2000/svg" xmlns:xlink="http://www.w3.org/1999/xlink" width="20" height="20" viewBox="0 0 20 20">
  <defs>
    <clipPath id="clip-path">
      <rect id="Rectangle_5903" data-name="Rectangle 5903" width="20" height="20" transform="translate(0 0.016)" fill="#fff" stroke="#707070" stroke-width="1"/>
    </clipPath>
  </defs>
  <g id="Mask_Group_830" data-name="Mask Group 830" transform="translate(0 -0.016)" clip-path="url(#clip-path)">
    <g id="noun-pound-456783" transform="translate(0 0)">
      <path id="Path_14479" data-name="Path 14479" d="M12.322,4.977a.883.883,0,1,1-1.289,1.207,1.072,1.072,0,0,0-.769-.331A1.06,1.06,0,0,0,9.2,6.917V8.786h.934a.887.887,0,1,1,0,1.774H9.2a3.24,3.24,0,0,1-.39,1.549l-.426.84H11.6a.887.887,0,0,1,0,1.774H7.981a1.547,1.547,0,0,1-1.1-.473,1.492,1.492,0,0,1-.426-1.065A1.583,1.583,0,0,1,6.62,12.5l.615-1.207a1.732,1.732,0,0,0,.189-.733H6.3a.887.887,0,0,1,0-1.774H7.425V6.917a2.837,2.837,0,0,1,4.9-1.952v.012Z" transform="translate(0.311 -0.033)" fill="#f90"/>
      <path id="Path_14480" data-name="Path 14480" d="M16.263,4.978A7.982,7.982,0,1,0,18.6,10.621,7.967,7.967,0,0,0,16.263,4.978Zm4.116,5.642A9.759,9.759,0,1,1,10.621.862,9.761,9.761,0,0,1,20.379,10.621Z" transform="translate(-0.862 -0.862)" fill="#f90"/>
    </g>
  </g>
</svg>
