<svg xmlns="http://www.w3.org/2000/svg" xmlns:xlink="http://www.w3.org/1999/xlink" width="20" height="20" viewBox="0 0 20 20">
  <defs>
    <clipPath id="clip-path">
      <rect id="Rectangle_5869" data-name="Rectangle 5869" width="20" height="20" transform="translate(0 0.016)" fill="#fff" stroke="#707070" stroke-width="1"/>
    </clipPath>
  </defs>
  <g id="Mask_Group_811" data-name="Mask Group 811" transform="translate(0 -0.016)" clip-path="url(#clip-path)">
    <g id="Iconly_Curved_Filter" data-name="Iconly/Curved/Filter" transform="translate(1.029 1.053)">
      <g id="Filter">
        <path id="Stroke_1" data-name="Stroke 1" d="M13.683,24.556H6.414" transform="translate(-6.414 -9.72)" fill="none" stroke="#fff" stroke-linecap="round" stroke-linejoin="round" stroke-width="2"/>
        <path id="Stroke_3" data-name="Stroke 3" d="M20.879,23.877c0,2.293.765,3.057,3.056,3.057s3.057-.764,3.057-3.057-.765-3.057-3.057-3.057S20.879,21.584,20.879,23.877Z" transform="translate(-9.049 -9.039)" fill="none" stroke="#fff" stroke-linecap="round" stroke-linejoin="round" stroke-width="2" fill-rule="evenodd"/>
        <path id="Stroke_5" data-name="Stroke 5" d="M19.467,10.154h7.268" transform="translate(-8.792 -7.096)" fill="none" stroke="#fff" stroke-linecap="round" stroke-linejoin="round" stroke-width="2"/>
        <path id="Stroke_7" data-name="Stroke 7" d="M12.528,9.471c0-2.292-.765-3.057-3.057-3.057s-3.058.765-3.058,3.057.765,3.057,3.058,3.057S12.528,11.764,12.528,9.471Z" transform="translate(-6.414 -6.414)" fill="none" stroke="#fff" stroke-linecap="round" stroke-linejoin="round" stroke-width="2" fill-rule="evenodd"/>
      </g>
    </g>
  </g>
</svg>
