<svg xmlns="http://www.w3.org/2000/svg" xmlns:xlink="http://www.w3.org/1999/xlink" width="283" height="26" viewBox="0 0 283 26">
  <defs>
    <clipPath id="clip-path">
      <rect id="Rectangle_49" data-name="Rectangle 49" width="283" height="26" transform="translate(567 4415)" fill="#fff" opacity="0.4"/>
    </clipPath>
    <clipPath id="clip-path-2">
      <rect id="Rectangle_5818" data-name="Rectangle 5818" width="34" height="22" transform="translate(826 4586)" fill="#fff" stroke="#707070" stroke-width="1"/>
    </clipPath>
  </defs>
  <g id="Mask_Group_793" data-name="Mask Group 793" transform="translate(-567 -4415)" clip-path="url(#clip-path)">
    <g id="footer_abta" transform="translate(571.522 4417.399)">
      <g id="Group_35" data-name="Group 35" transform="translate(78.477 -0.399)">
        <g id="Group_33" data-name="Group 33">
          <g id="Group_31" data-name="Group 31" transform="translate(5.454 3.794)">
            <path id="Path_65" data-name="Path 65" d="M38.5,198.074l.519.083-.187-.457m3.88.6a.76.76,0,0,0-.436.021.268.268,0,0,0-.187.249.381.381,0,0,0,.1.311.87.87,0,0,0,.394.166,1,1,0,0,0,.436-.021.244.244,0,0,0,.187-.249.381.381,0,0,0-.1-.311.634.634,0,0,0-.394-.166Z" transform="translate(-36.819 -188.715)" fill="#fff"/>
            <path id="Path_66" data-name="Path 66" d="M34.778,161.663a5.564,5.564,0,0,1-.789-6.972l-1.7-.291L30.4,165.128l8.591,1.515.56-3.2a6.134,6.134,0,0,1-4.773-1.785Zm-1.992,2.594-.083-.228-.768-.145-.187.187-.436-.062.913-.913.477.083.56,1.162-.477-.083Zm2.345-.457-.6-.1-.145.851-.436-.062.166-.851-.623-.1.042-.187,1.66.291-.062.166Zm2.1.726a.443.443,0,0,1-.394.353,1.256,1.256,0,0,1-.685,0,1.845,1.845,0,0,1-.643-.228.511.511,0,0,1-.249-.477.489.489,0,0,1,.394-.374,1.256,1.256,0,0,1,.685,0,1.471,1.471,0,0,1,.643.249.46.46,0,0,1,.249.477Zm1.681.851-1.453-.249.187-1.038.436.062-.166.83,1.017.187-.021.208Z" transform="translate(-30.4 -154.4)" fill="#fff"/>
            <path id="Path_67" data-name="Path 67" d="M55.781,164.225a4.414,4.414,0,0,0,3.652,2.449l1.245-7.014-3.071-.56c-.021,0-3.486,1.785-1.826,5.126Z" transform="translate(-50.158 -158.125)" fill="#fff"/>
          </g>
          <path id="Path_68" data-name="Path 68" d="M12.995,158.756a10.276,10.276,0,0,1-8.031-11.929,9.966,9.966,0,0,1,11.475-8.355,10.268,10.268,0,0,1,8.051,11.908,9.981,9.981,0,0,1-11.5,8.376ZM4.279,146.7a10.992,10.992,0,0,0,8.612,12.747,10.642,10.642,0,0,0,12.264-8.915,11.951,11.951,0,0,0,.166-1.916,10.933,10.933,0,0,0-8.757-10.831A10.647,10.647,0,0,0,4.279,146.7Z" transform="translate(-4.117 -137.613)" fill="#fff"/>
          <path id="Path_69" data-name="Path 69" d="M12.124,195.226a1.96,1.96,0,0,0,.062.187.424.424,0,0,0,.5.166c.249-.062.374-.249.332-.394L12.954,195l-.83.228M11,195.538c-.021-.062-.021-.166-.042-.228a.936.936,0,0,1-.062-.228l2.158-.581.208.768c.125.436.021.706-.332.809-.56.166-.809-.208-.934-.789l-1,.249Zm1.909,1.639a.4.4,0,0,0,.664.187,1.412,1.412,0,0,1,.145-.1c.187-.187.062-.374-.042-.56l-.768.477m.664-.955.332.6a2.105,2.105,0,0,1,.208.5.46.46,0,0,1-.249.477.581.581,0,0,1-.768-.145c-.187.311-.332.643-.5.955l-.1.208a1.714,1.714,0,0,0-.145-.27c-.062-.083-.1-.166-.166-.249l.394-.685a1.569,1.569,0,0,0,.187-.374l-.021-.021-.913.519c-.042-.062-.062-.145-.1-.208a.646.646,0,0,0-.145-.187l1.992-1.121Zm.519,2.864a.734.734,0,0,0-.062,1.1c.374.332.872.1,1.224-.311a.757.757,0,0,0,.062-1.121c-.332-.291-.768-.208-1.224.332m-.228,1.224a1.1,1.1,0,0,1-.145-1.66,1.181,1.181,0,0,1,1.743-.041,1.121,1.121,0,0,1,.145,1.66,1.162,1.162,0,0,1-1.743.042Zm2.76,1.639c-.062-.041-.145-.062-.208-.1a.473.473,0,0,0-.228-.062L17,199.958a2.932,2.932,0,0,0-.56-.187c.021-.042.062-.062.062-.125a1.322,1.322,0,0,0,.042-.145l1.536.685c-.021.042-.062.062-.062.125a.3.3,0,0,0-.042.145,4.077,4.077,0,0,0-.519-.27l-.83,1.764m2.947-1.536a.3.3,0,0,0-.042.145.353.353,0,0,0-.021.145,3.46,3.46,0,0,0-.726-.166l-.1.685.332.062a3.2,3.2,0,0,0,.394.042.3.3,0,0,0-.042.145c0,.062-.021.1-.021.145-.1-.041-.249-.062-.394-.1l-.332-.062-.145.809a3.572,3.572,0,0,0,.747.062.3.3,0,0,0-.042.145.308.308,0,0,0-.021.145l-1.2-.208.374-2.2,1.245.208m2.324,1.7-.041.291a1.148,1.148,0,0,1-.623.187,1.127,1.127,0,0,1-1.328-.955,1.172,1.172,0,0,1,1.183-1.349,1.578,1.578,0,0,1,.685.1c-.021.1-.021.208-.042.332h-.042a.676.676,0,0,0-.56-.249c-.54.062-.706.581-.664,1.058.062.56.374.913.851.872a.9.9,0,0,0,.56-.311l.021.021m1.868-.228c-.062.021-.166.042-.228.062-.062.042-.145.062-.208.1l-.726-1.868c-.208.083-.394.187-.56.27A1.321,1.321,0,0,1,22,200.31a.691.691,0,0,1-.062-.125l1.577-.6a1.322,1.322,0,0,1,.042.145l.062.124a5.728,5.728,0,0,0-.56.166l.706,1.868m1.017-3.2.062.125c.021.042.062.062.083.1a2.979,2.979,0,0,0-.643.394l.394.56.291-.187c.125-.083.208-.166.311-.249l.062.125a.364.364,0,0,1,.083.1c-.1.062-.208.124-.332.208l-.291.187.477.685a6.391,6.391,0,0,0,.581-.457l.062.124c.021.042.062.062.083.1l-.975.726-1.266-1.805,1.017-.747m2.2.623.166-.208c.291-.353.311-.768-.291-1.224-.477-.374-.851-.311-1.121.062l-.187.249,1.432,1.121m-1.2-1.743a.956.956,0,0,1,1.432-.124,1.118,1.118,0,0,1,.187,1.66l-.56.706-1.722-1.37.664-.872Z" transform="translate(-9.492 -181.897)" fill="#fff"/>
          <g id="Group_32" data-name="Group 32" transform="translate(23.596 0.91)">
            <path id="Path_70" data-name="Path 70" d="M116.57,142.268h2.242l4.67,11.164H121.2l-1.142-2.944h-4.815l-1.142,2.944h-2.2l4.67-11.164Zm-.747,6.71h3.695l-1.806-4.8h-.062l-1.827,4.8Zm6.1-6.71h9.818v1.682H127.9v9.463h-2.117V143.95h-3.84v-1.682ZM138.3,142a5.978,5.978,0,0,1,2.449.478,5.412,5.412,0,0,1,1.827,1.262,5.659,5.659,0,0,1,1.162,1.854,6.244,6.244,0,0,1,.394,2.256,6.724,6.724,0,0,1-.394,2.256,4.9,4.9,0,0,1-1.162,1.854,5.365,5.365,0,0,1-1.827,1.243,6.508,6.508,0,0,1-2.449.5,6.3,6.3,0,0,1-2.449-.459A5.435,5.435,0,0,1,134.026,152a5.606,5.606,0,0,1-1.142-1.854,6.244,6.244,0,0,1-.394-2.256,6.724,6.724,0,0,1,.394-2.256,5.119,5.119,0,0,1,1.142-1.854,5.479,5.479,0,0,1,1.827-1.262A5.37,5.37,0,0,1,138.3,142Zm0,1.606a3.843,3.843,0,0,0-1.681.363,3.4,3.4,0,0,0-1.162.956,4.445,4.445,0,0,0-.664,1.357,6.024,6.024,0,0,0,0,3.135,3.7,3.7,0,0,0,.664,1.357,3.277,3.277,0,0,0,1.162.975,3.777,3.777,0,0,0,1.681.363,3.842,3.842,0,0,0,1.681-.363,3.243,3.243,0,0,0,1.162-.975,4.444,4.444,0,0,0,.664-1.357,6.023,6.023,0,0,0,0-3.135,3.7,3.7,0,0,0-.664-1.357,3.277,3.277,0,0,0-1.162-.975,3.908,3.908,0,0,0-1.681-.344Zm7.721-1.338h2.117v9.463H154.3v1.682h-8.282V142.268Z" transform="translate(-111.9 -142)" fill="#fff"/>
            <path id="Path_71" data-name="Path 71" d="M112,208.325h2.262a2.139,2.139,0,0,1,.893.166,1.517,1.517,0,0,1,.54.394,1.332,1.332,0,0,1,.249.519,2.354,2.354,0,0,1,.062.519,2.505,2.505,0,0,1-.062.519,1.707,1.707,0,0,1-.249.519,1.22,1.22,0,0,1-.54.394,2.139,2.139,0,0,1-.893.166h-1.349v1.971h-.893L112,208.325Zm.893,2.428H114.2a1.842,1.842,0,0,0,.311-.041.953.953,0,0,0,.291-.145.783.783,0,0,0,.208-.249.791.791,0,0,0,.062-.394,1.165,1.165,0,0,0-.062-.415,1.246,1.246,0,0,0-.187-.27.95.95,0,0,0-.291-.145.861.861,0,0,0-.332-.042h-1.308v1.7Zm3.9-2.428h2.449a1.846,1.846,0,0,1,1.266.374,1.327,1.327,0,0,1,.436,1.017,1.649,1.649,0,0,1-.1.6,1.431,1.431,0,0,1-.249.394.844.844,0,0,1-.291.207.857.857,0,0,0-.187.083v.021c.062.021.166.042.249.062a.975.975,0,0,1,.249.187,1.126,1.126,0,0,1,.187.311,1.264,1.264,0,0,1,.062.5,4.583,4.583,0,0,0,.062.809,1.114,1.114,0,0,0,.208.519h-.955a.991.991,0,0,1-.125-.374,2.645,2.645,0,0,1-.021-.394,4.833,4.833,0,0,0-.042-.6.744.744,0,0,0-.166-.436.919.919,0,0,0-.311-.249,1.265,1.265,0,0,0-.5-.062h-1.308v2.117h-.892l-.021-5.084Zm.893,2.345h1.474a1.053,1.053,0,0,0,.664-.187.788.788,0,0,0,.208-.6,1.046,1.046,0,0,0-.062-.394.566.566,0,0,0-.187-.249.5.5,0,0,0-.291-.1,1.615,1.615,0,0,0-.332-.041h-1.453v1.577Zm6.331-2.469a2.442,2.442,0,0,1,1.038.207,2.154,2.154,0,0,1,.768.581,2.444,2.444,0,0,1,.477.851,3.4,3.4,0,0,1,.166,1.038,3.5,3.5,0,0,1-.166,1.038,3.1,3.1,0,0,1-.477.851,2.154,2.154,0,0,1-.768.581,2.7,2.7,0,0,1-2.076,0,2.154,2.154,0,0,1-.768-.581,2.444,2.444,0,0,1-.477-.851,3.4,3.4,0,0,1-.166-1.038,3.61,3.61,0,0,1,.166-1.038,3.1,3.1,0,0,1,.477-.851,2.154,2.154,0,0,1,.768-.581,2.72,2.72,0,0,1,1.038-.207Zm0,.726a1.337,1.337,0,0,0-.685.166,1.368,1.368,0,0,0-.477.436,2.862,2.862,0,0,0-.291.623,2.629,2.629,0,0,0-.083.706,3.861,3.861,0,0,0,.083.706,2.14,2.14,0,0,0,.291.623,1.367,1.367,0,0,0,.477.436,1.453,1.453,0,0,0,.685.166,1.393,1.393,0,0,0,.685-.166,1.367,1.367,0,0,0,.477-.436,2.861,2.861,0,0,0,.291-.623,2.629,2.629,0,0,0,.083-.706,3.861,3.861,0,0,0-.083-.706,2.141,2.141,0,0,0-.291-.623,1.368,1.368,0,0,0-.477-.436,1.393,1.393,0,0,0-.685-.166Zm2.781-.6h4.151v.768h-1.619v4.337h-.893v-4.337H126.8v-.768Zm4.732,0h3.695v.768h-2.8v1.328H135v.726h-2.574v1.494h2.844v.768h-3.736v-5.084Zm7.991,1.619a1.449,1.449,0,0,0-.166-.415,2.04,2.04,0,0,0-.249-.311.8.8,0,0,0-.374-.208,1.317,1.317,0,0,0-.5-.062,1.477,1.477,0,0,0-.706.166,1.368,1.368,0,0,0-.477.436,2.861,2.861,0,0,0-.291.623,2.629,2.629,0,0,0-.083.706,3.86,3.86,0,0,0,.083.706,1.713,1.713,0,0,0,.291.623,1.368,1.368,0,0,0,.477.436,1.478,1.478,0,0,0,.706.166,1.559,1.559,0,0,0,.54-.1.935.935,0,0,0,.394-.291,1.493,1.493,0,0,0,.249-.436,2.107,2.107,0,0,0,.125-.519h.872a2.563,2.563,0,0,1-.187.83,2.372,2.372,0,0,1-.457.664,2.278,2.278,0,0,1-.685.436,2.388,2.388,0,0,1-.851.166,2.442,2.442,0,0,1-1.038-.208,2.153,2.153,0,0,1-.768-.581,2.443,2.443,0,0,1-.477-.851,3.4,3.4,0,0,1-.166-1.038,3.61,3.61,0,0,1,.166-1.038,3.1,3.1,0,0,1,.477-.851,2.153,2.153,0,0,1,.768-.581,2.379,2.379,0,0,1,1.038-.207,2.545,2.545,0,0,1,.809.124,2.618,2.618,0,0,1,.685.332,2,2,0,0,1,.457.56,1.648,1.648,0,0,1,.208.726Zm1.225-1.619H144.9v.768h-1.619v4.337h-.893v-4.337h-1.619l-.021-.768Zm4.732,0h3.695v.768h-2.781v1.328h2.574v.726h-2.574v1.494h2.844v.768H145.5l-.021-5.084Zm4.525,0h2.117a2.543,2.543,0,0,1,1.017.187,1.883,1.883,0,0,1,.706.56,2.107,2.107,0,0,1,.394.809,3.846,3.846,0,0,1,.145,1,3.126,3.126,0,0,1-.145,1,2.452,2.452,0,0,1-.394.809,2.112,2.112,0,0,1-.706.56,2.542,2.542,0,0,1-1.017.187H150v-5.1Zm.913,4.378h.893a2.023,2.023,0,0,0,.851-.145,1.091,1.091,0,0,0,.519-.394,1.455,1.455,0,0,0,.249-.581,3.788,3.788,0,0,0,.062-.726,3.948,3.948,0,0,0-.062-.726,2.132,2.132,0,0,0-.249-.581,1.121,1.121,0,0,0-.519-.394,2.415,2.415,0,0,0-.851-.145h-.893V212.7Z" transform="translate(-111.979 -193.664)" fill="#fff"/>
          </g>
        </g>
        <g id="Group_34" data-name="Group 34" transform="translate(8.477 1.249)">
          <path id="Path_72" data-name="Path 72" d="M46.879,145.568l.218-1.291-.3-.06.06-.318.715.119-.278,1.629-.417-.079Z" transform="translate(-46.8 -143.9)" fill="#fff"/>
          <path id="Path_73" data-name="Path 73" d="M52.934,146.313l.06-.357.377.06-.06.357.218.04-.06.3-.218-.04-.06.357-.377-.06.06-.357-.775-.139.04-.278.675-.894.4.06-.636.874.357.079Z" transform="translate(-51.047 -145.022)" fill="#fff"/>
          <path id="Path_74" data-name="Path 74" d="M61.877,148.128l-.437-.06.794-1.192L61.8,146.8l-.04.218-.357-.06.1-.556,1.251.2-.06.278-.814,1.251Z" transform="translate(-58.5 -145.904)" fill="#fff"/>
          <path id="Path_75" data-name="Path 75" d="M68.7,149.46l.2-.258a.54.54,0,0,0,.318.159.373.373,0,0,0,.457-.357.425.425,0,0,1-.417.1.5.5,0,0,1-.437-.616.546.546,0,0,1,.7-.457.683.683,0,0,1,.556.914.779.779,0,0,1-.894.735.947.947,0,0,1-.477-.218Zm1.013-.814a.238.238,0,0,0-.2-.278c-.159-.02-.258.04-.278.179a.2.2,0,0,0,.179.258A.218.218,0,0,0,69.713,148.645Z" transform="translate(-64.351 -147.195)" fill="#fff"/>
        </g>
      </g>
      <g id="Group_42" data-name="Group 42" transform="translate(164.478 -0.399)">
        <g id="Group_36" data-name="Group 36" transform="translate(0 0)">
          <path id="Path_76" data-name="Path 76" d="M45.566,283.8a2.279,2.279,0,0,0-2.266,2.286v1.74l2.266-.2,2.266.2v-1.76A2.237,2.237,0,0,0,45.566,283.8Z" transform="translate(-35.106 -278.251)" fill="#fff"/>
          <path id="Path_77" data-name="Path 77" d="M51.549,313.1a.751.751,0,0,0-.749.769.763.763,0,0,0,.425.688H51.2v1.416h.708v-1.416a.828.828,0,0,0,.425-.688.786.786,0,0,0-.789-.769Z" transform="translate(-41.089 -301.379)" fill="#fff"/>
          <path id="Path_78" data-name="Path 78" d="M13.259,257.6a10.929,10.929,0,0,0,0,21.838,10.929,10.929,0,0,0,0-21.838Zm4.208,16.924-4.188.378-4.168-.378v-7.076l.931-.063v-1.932a3.34,3.34,0,0,1,3.277-3.4,3.354,3.354,0,0,1,3.277,3.4v1.911l.931.063V274.5h-.061Z" transform="translate(-2.8 -257.6)" fill="#fff"/>
        </g>
        <g id="Group_37" data-name="Group 37" transform="translate(22.909 0)">
          <path id="Path_79" data-name="Path 79" d="M119.525,261.747a2.124,2.124,0,0,1-.688,1.214,1.921,1.921,0,0,1-1.254.425,2.106,2.106,0,0,1-1.092-.324,1.89,1.89,0,0,1-.647-.688,1.238,1.238,0,0,1-.1-.243,3.131,3.131,0,0,1-.081-.3,9.083,9.083,0,0,1-.061-1.315,9.23,9.23,0,0,1,.061-1.335,1.728,1.728,0,0,1,.182-.546,1.939,1.939,0,0,1,.647-.708,1.841,1.841,0,0,1,1.092-.324,1.771,1.771,0,0,1,1.295.486,2.085,2.085,0,0,1,.627,1.194h-.89a1.369,1.369,0,0,0-.364-.587,1.021,1.021,0,0,0-.688-.243.985.985,0,0,0-.506.121,1.007,1.007,0,0,0-.344.3,1.109,1.109,0,0,0-.223.465,7.067,7.067,0,0,0-.061,1.153,6.6,6.6,0,0,0,.061,1.133.9.9,0,0,0,.223.486.791.791,0,0,0,.344.283.986.986,0,0,0,.506.121,1.12,1.12,0,0,0,1.052-.789h.91Z" transform="translate(-115.6 -257.6)" fill="#fff"/>
          <path id="Path_80" data-name="Path 80" d="M141.1,257.8h.829v4.9h2.691v.809H141.1Z" transform="translate(-135.941 -257.76)" fill="#fff"/>
          <path id="Path_81" data-name="Path 81" d="M165.6,257.8h.829v5.705H165.6Z" transform="translate(-155.484 -257.76)" fill="#fff"/>
          <path id="Path_82" data-name="Path 82" d="M178.3,257.8h3.52v.809h-2.691v1.639h2.306v.769h-2.306V262.7h2.691v.809H178.3Z" transform="translate(-165.615 -257.76)" fill="#fff"/>
          <path id="Path_83" data-name="Path 83" d="M202.8,257.8h.789l2.509,4.046h.02V257.8h.829v5.705h-.789l-2.509-4.046h0v4.046h-.829V257.8Z" transform="translate(-185.158 -257.76)" fill="#fff"/>
          <path id="Path_84" data-name="Path 84" d="M231.117,258.569H229.6V257.8h3.864v.769h-1.517v4.936h-.829Z" transform="translate(-206.536 -257.76)" fill="#fff"/>
        </g>
        <g id="Group_40" data-name="Group 40" transform="translate(22.944 16.194)">
          <g id="Group_38" data-name="Group 38" transform="translate(0 0.04)">
            <path id="Path_85" data-name="Path 85" d="M119.019,338.331h-2.1l-.425,1.275h-.89l2-5.705h.708l2,5.705h-.89Zm-.243-.749-.809-2.488h-.02l-.809,2.488Z" transform="translate(-115.6 -333.9)" fill="#fff"/>
          </g>
          <g id="Group_39" data-name="Group 39" transform="translate(5.725)">
            <path id="Path_86" data-name="Path 86" d="M147.825,337.947a2.124,2.124,0,0,1-.688,1.214,1.921,1.921,0,0,1-1.254.425,2.106,2.106,0,0,1-1.092-.324,1.89,1.89,0,0,1-.647-.688,1.236,1.236,0,0,1-.1-.243,1.1,1.1,0,0,1-.081-.3,9.081,9.081,0,0,1-.061-1.315,9.228,9.228,0,0,1,.061-1.335,1.728,1.728,0,0,1,.182-.546,1.938,1.938,0,0,1,.647-.708,1.841,1.841,0,0,1,1.092-.324,1.771,1.771,0,0,1,1.295.486,2.085,2.085,0,0,1,.627,1.194h-.89a1.37,1.37,0,0,0-.364-.587,1.021,1.021,0,0,0-.688-.243.985.985,0,0,0-.506.121,1.007,1.007,0,0,0-.344.3,1.109,1.109,0,0,0-.223.465,7.066,7.066,0,0,0-.061,1.153,6.6,6.6,0,0,0,.061,1.133.9.9,0,0,0,.223.486.79.79,0,0,0,.344.283.985.985,0,0,0,.506.121,1.12,1.12,0,0,0,1.052-.789h.91Z" transform="translate(-143.9 -333.78)" fill="#fff"/>
            <path id="Path_87" data-name="Path 87" d="M172.325,337.947a2.124,2.124,0,0,1-.688,1.214,1.921,1.921,0,0,1-1.254.425,2.106,2.106,0,0,1-1.092-.324,1.89,1.89,0,0,1-.647-.688,1.238,1.238,0,0,1-.1-.243,3.139,3.139,0,0,1-.081-.3,9.081,9.081,0,0,1-.061-1.315,9.228,9.228,0,0,1,.061-1.335,1.728,1.728,0,0,1,.182-.546,1.938,1.938,0,0,1,.647-.708,1.841,1.841,0,0,1,1.092-.324,1.771,1.771,0,0,1,1.295.486,2.085,2.085,0,0,1,.627,1.194h-.89a1.37,1.37,0,0,0-.364-.587,1.021,1.021,0,0,0-.688-.243.986.986,0,0,0-.506.121,1.007,1.007,0,0,0-.344.3,1.109,1.109,0,0,0-.223.465,7.066,7.066,0,0,0-.061,1.153,6.6,6.6,0,0,0,.061,1.133.9.9,0,0,0,.223.486.79.79,0,0,0,.344.283.986.986,0,0,0,.506.121,1.12,1.12,0,0,0,1.052-.789h.91Z" transform="translate(-163.443 -333.78)" fill="#fff"/>
            <path id="Path_88" data-name="Path 88" d="M193,336.613a9.229,9.229,0,0,1,.061-1.335,1.728,1.728,0,0,1,.182-.546,1.938,1.938,0,0,1,.647-.708,2.006,2.006,0,0,1,2.185,0,1.874,1.874,0,0,1,.627.708,1.34,1.34,0,0,1,.2.546,10.366,10.366,0,0,1,.04,1.335c0,.647-.02,1.092-.04,1.315a1.341,1.341,0,0,1-.2.546,1.825,1.825,0,0,1-.627.688,1.887,1.887,0,0,1-1.092.324,2.105,2.105,0,0,1-1.092-.324,1.89,1.89,0,0,1-.647-.688,1.24,1.24,0,0,1-.1-.243,3.131,3.131,0,0,1-.081-.3A9.082,9.082,0,0,1,193,336.613Zm.829,0a6.6,6.6,0,0,0,.061,1.133.9.9,0,0,0,.223.486.79.79,0,0,0,.344.283.986.986,0,0,0,.506.121,1.12,1.12,0,0,0,.526-.121,1.172,1.172,0,0,0,.344-.283,1.081,1.081,0,0,0,.223-.486,6.939,6.939,0,0,0,.061-1.133,7.067,7.067,0,0,0-.061-1.153,1.222,1.222,0,0,0-.566-.769,1.065,1.065,0,0,0-.526-.121.986.986,0,0,0-.506.121,1.007,1.007,0,0,0-.344.3,1.109,1.109,0,0,0-.223.465A7.063,7.063,0,0,0,193.829,336.613Z" transform="translate(-183.066 -333.7)" fill="#fff"/>
            <path id="Path_89" data-name="Path 89" d="M220.1,334h.829v3.682a1.225,1.225,0,0,0,.324.89,1.024,1.024,0,0,0,.809.324,1.083,1.083,0,0,0,.809-.324,1.225,1.225,0,0,0,.324-.89V334h.829v3.763a2.016,2.016,0,0,1-.566,1.436,1.89,1.89,0,0,1-1.4.546,1.956,1.956,0,0,1-1.4-.546,1.816,1.816,0,0,1-.566-1.416Z" transform="translate(-204.684 -333.939)" fill="#fff"/>
            <path id="Path_90" data-name="Path 90" d="M248,334h.789l2.509,4.046h.02V334h.829v5.705h-.789l-2.488-4.046h-.02v4.046H248Z" transform="translate(-226.939 -333.939)" fill="#fff"/>
            <path id="Path_91" data-name="Path 91" d="M276.217,334.749H274.7V334h3.864v.769h-1.517v4.936h-.829Z" transform="translate(-248.238 -333.939)" fill="#fff"/>
          </g>
        </g>
        <g id="Group_41" data-name="Group 41" transform="translate(22.902 8.299)">
          <path id="Path_92" data-name="Path 92" d="M117.117,297.669H115.6V296.9h3.864v.769h-1.517v4.936h-.829Z" transform="translate(-115.6 -296.839)" fill="#fff"/>
          <path id="Path_93" data-name="Path 93" d="M140.8,296.9h2.165a1.638,1.638,0,0,1,1.133.384,1.667,1.667,0,0,1-.526,2.792l1.275,2.529h-.991l-1.153-2.428H141.63v2.428H140.8Zm.829,2.488H142.9a.884.884,0,0,0,.708-.283.855.855,0,0,0,.223-.627.758.758,0,0,0-.283-.647.906.906,0,0,0-.607-.182H141.63v1.74Z" transform="translate(-135.702 -296.839)" fill="#fff"/>
          <path id="Path_94" data-name="Path 94" d="M166.9,296.9h.829v3.682a1.225,1.225,0,0,0,.324.89,1.024,1.024,0,0,0,.809.324,1.083,1.083,0,0,0,.809-.324,1.225,1.225,0,0,0,.324-.89V296.9h.829v3.763a2.016,2.016,0,0,1-.566,1.436,1.89,1.89,0,0,1-1.4.546,1.956,1.956,0,0,1-1.4-.546,1.816,1.816,0,0,1-.566-1.416Z" transform="translate(-156.521 -296.839)" fill="#fff"/>
          <path id="Path_95" data-name="Path 95" d="M192.966,300.97a2.432,2.432,0,0,0,1.578.566q1.062-.03,1.092-.789c0-.425-.243-.688-.728-.769-.223-.04-.465-.061-.728-.1a1.878,1.878,0,0,1-1.092-.546,1.5,1.5,0,0,1-.384-1.052,1.585,1.585,0,0,1,.486-1.214,1.8,1.8,0,0,1,1.315-.465,3.089,3.089,0,0,1,1.8.587l-.465.708a2.529,2.529,0,0,0-1.376-.445.991.991,0,0,0-.647.2.8.8,0,0,0-.283.627.664.664,0,0,0,.182.445,1.066,1.066,0,0,0,.587.283c.142.02.364.061.627.081a1.743,1.743,0,0,1,1.153.566,1.678,1.678,0,0,1,.364,1.072c-.02,1.092-.668,1.639-1.942,1.659a3.136,3.136,0,0,1-2.1-.769Z" transform="translate(-176.862 -296.6)" fill="#fff"/>
          <path id="Path_96" data-name="Path 96" d="M218.717,297.669H217.2V296.9h3.864v.769h-1.517v4.936h-.829Z" transform="translate(-196.645 -296.839)" fill="#fff"/>
        </g>
      </g>
      <g id="Mask_Group_792" data-name="Mask Group 792" transform="translate(-582.522 -4586.399)" clip-path="url(#clip-path-2)">
        <path id="iata-svgrepo-com" d="M4.842,28.206,6.23,21.222H8.485L7.107,28.2Zm6.81-2.287h1.434l-.368-2.562ZM8.485,28.206,11.9,21.222h2.224l1.4,6.982H13.439l-.125-.829H11.088l-.354.829Zm9.122,0,.775-5.252H16.407l.337-1.763h6.064l-.336,1.763H20.592l-.759,5.252Zm7.585-2.287h1.434l-.368-2.562Zm-3.159,2.287,3.41-6.984h2.224l1.4,6.982H26.962l-.1-.829H24.636l-.354.829ZM34,13.33H23.381c-.391,1.961-1.74,3.6-4.427,4.729a2.737,2.737,0,0,0,2.429,1.794h5.759A2.249,2.249,0,0,0,29,18.509H23.147c-.36-.063-.375-.357-.014-.387h5.751a2.334,2.334,0,0,0,1.809-1.337h-6.7c-.336-.056-.336-.34,0-.4h6.756c.68,0,1.3-.8,1.558-1.335H24.9c-.368-.047-.368-.4,0-.4H32.44c.588,0,1.16-.649,1.56-1.321Zm-34,0H10.617c.382,1.961,1.74,3.6,4.42,4.729a2.739,2.739,0,0,1-2.429,1.794H6.856A2.249,2.249,0,0,1,5,18.509h5.852c.353-.063.375-.357.014-.387H5.11a2.313,2.313,0,0,1-1.8-1.337h6.708c.337-.056.337-.34,0-.4H3.258c-.681,0-1.3-.8-1.558-1.335H9.112c.368-.047.368-.4,0-.4H1.567C.972,14.65.4,14,0,13.33ZM13.556,7.448a4.7,4.7,0,0,0,1.3.829,7.466,7.466,0,0,1,1.6-2.071,5.711,5.711,0,0,0-2.9,1.242Zm-1.88,3.9h2.366a7.718,7.718,0,0,1,.643-2.729,5.689,5.689,0,0,1-1.419-.9,5.5,5.5,0,0,0-1.589,3.63Zm5.139-2.24v2.239H14.449a6.655,6.655,0,0,1,.586-2.595,5.738,5.738,0,0,0,1.779.357Zm3.628-1.66a4.734,4.734,0,0,1-1.3.829,7.486,7.486,0,0,0-1.606-2.063A5.63,5.63,0,0,1,20.443,7.447Zm1.873,3.9H19.957a7.341,7.341,0,0,0-.626-2.729,6.077,6.077,0,0,0,1.394-.9,5.345,5.345,0,0,1,1.591,3.63ZM17.2,9.107v2.239h2.352a6.362,6.362,0,0,0-.588-2.595,5.645,5.645,0,0,1-1.764.357ZM13.556,15.64a5.118,5.118,0,0,1,1.3-.815,7.431,7.431,0,0,0,1.6,2.049A5.71,5.71,0,0,1,13.556,15.64Zm-1.88-3.906h2.366a7.814,7.814,0,0,0,.643,2.751,5.944,5.944,0,0,0-1.419.893,5.548,5.548,0,0,1-1.589-3.645Zm5.139,2.244V11.734H14.449a6.475,6.475,0,0,0,.586,2.593,5.727,5.727,0,0,1,1.779-.349Zm3.628,1.661a4.824,4.824,0,0,0-1.3-.815,7.3,7.3,0,0,1-1.606,2.049A5.764,5.764,0,0,0,20.443,15.64Zm1.873-3.906H19.957a7.311,7.311,0,0,1-.626,2.751,6.3,6.3,0,0,1,1.394.893,5.464,5.464,0,0,0,1.591-3.645ZM17.2,13.979V11.734h2.352a6.3,6.3,0,0,1-.588,2.593,5.635,5.635,0,0,0-1.764-.349Zm-.384-7.543a6.261,6.261,0,0,0-1.591,1.976,4.985,4.985,0,0,0,1.591.317Zm.384,0a6.173,6.173,0,0,1,1.575,1.976,4.582,4.582,0,0,1-1.575.317Zm-.384,10.216a6.037,6.037,0,0,1-1.591-1.984,4.726,4.726,0,0,1,1.591-.286Zm.384.016a6.418,6.418,0,0,0,1.575-2,5.22,5.22,0,0,0-1.575-.283Z" transform="translate(825.844 4579.794)" fill="#fff"/>
      </g>
    </g>
  </g>
</svg>
