<svg xmlns="http://www.w3.org/2000/svg" xmlns:xlink="http://www.w3.org/1999/xlink" width="24" height="24" viewBox="0 0 24 24">
  <defs>
    <clipPath id="clip-path">
      <rect id="Rectangle_5810" data-name="Rectangle 5810" width="24" height="24" transform="translate(0.003)" fill="#fff" stroke="#707070" stroke-width="1"/>
    </clipPath>
  </defs>
  <g id="Mask_Group_785" data-name="Mask Group 785" transform="translate(-0.003)" clip-path="url(#clip-path)">
    <g id="pin-svgrepo-com" transform="translate(3.013 1.186)">
      <path id="Path_14408" data-name="Path 14408" d="M23.718,13.045a11.272,11.272,0,0,1-3.043,7.115,26.224,26.224,0,0,1-5.314,4.63,2.029,2.029,0,0,1-2.261,0,26.224,26.224,0,0,1-5.314-4.63,11.272,11.272,0,0,1-3.043-7.115,9.487,9.487,0,1,1,18.974,0Z" transform="translate(-4.744 -3.558)" fill="none" stroke="#fff" stroke-width="1.6"/>
      <path id="Path_14409" data-name="Path 14409" d="M17.789,13.045a3.558,3.558,0,1,1-3.558-3.558A3.558,3.558,0,0,1,17.789,13.045Z" transform="translate(-4.744 -3.558)" fill="none" stroke="#fff" stroke-width="1.6"/>
    </g>
  </g>
</svg>
