<svg xmlns="http://www.w3.org/2000/svg" xmlns:xlink="http://www.w3.org/1999/xlink" width="18" height="18" viewBox="0 0 18 18">
  <defs>
    <clipPath id="clip-path">
      <rect id="Rectangle_5916" data-name="Rectangle 5916" width="18" height="18" transform="translate(469 1044)" fill="#fff" stroke="#707070" stroke-width="1"/>
    </clipPath>
  </defs>
  <g id="Mask_Group_929" data-name="Mask Group 929" transform="translate(-469 -1044)" clip-path="url(#clip-path)">
    <g id="food-dinner-lunch-knife-fork-svgrepo-com" transform="translate(469.73 1045.01)">
      <path id="Path_14492" data-name="Path 14492" d="M13.938,11.677c.26-.065.456-.065.716-.13a4.6,4.6,0,0,0,2.8-1.5l3.19-3.19" transform="translate(-4.374 -3.344)" fill="none" stroke="#a4a4a4" stroke-linecap="round" stroke-linejoin="round" stroke-width="1.4"/>
      <path id="Path_14493" data-name="Path 14493" d="M8.354,14.084,3.8,17.795a1.385,1.385,0,0,0-.13,2.148,1.426,1.426,0,0,0,2.148-.13l3.711-4.622" transform="translate(-3.217 -4.124)" fill="none" stroke="#a4a4a4" stroke-linecap="round" stroke-linejoin="round" stroke-width="1.4"/>
      <path id="Path_14494" data-name="Path 14494" d="M16.923,2.919l-3.255,3.19a4.279,4.279,0,0,0-1.5,2.8,2.769,2.769,0,0,1-.13.716" transform="translate(-4.169 -2.919)" fill="none" stroke="#a4a4a4" stroke-linecap="round" stroke-linejoin="round" stroke-width="1.4"/>
      <path id="Path_14491" data-name="Path 14491" d="M4.59,9.119a4.244,4.244,0,0,1,0-6.054l7.226,7.226L14.225,12.7l3.711,3.711a1.573,1.573,0,0,1,0,2.278h0a1.622,1.622,0,0,1-2.409-.13l-2.669-3.32a2.486,2.486,0,0,0-2.864-.716h0Z" transform="translate(-3.229 -2.936)" fill="none" stroke="#eb6c6f" stroke-linecap="round" stroke-linejoin="round" stroke-width="1.4"/>
      <line id="Line_28" data-name="Line 28" y1="3.515" x2="3.515" transform="translate(10.996 1.758)" fill="none" stroke="#eb6c6f" stroke-linecap="round" stroke-linejoin="round" stroke-width="1.4"/>
    </g>
  </g>
</svg>
