<svg xmlns="http://www.w3.org/2000/svg" xmlns:xlink="http://www.w3.org/1999/xlink" width="22" height="20" viewBox="0 0 22 20">
  <defs>
    <clipPath id="clip-path">
      <rect id="Rectangle_5960" data-name="Rectangle 5960" width="22" height="20" transform="translate(962.782 33)" fill="#fff" stroke="#707070" stroke-width="1"/>
    </clipPath>
  </defs>
  <g id="Mask_Group_850" data-name="Mask Group 850" transform="translate(-962.782 -33)" clip-path="url(#clip-path)">
    <path id="mail-minus-svgrepo-com" d="M12.167,21H7a5.347,5.347,0,0,1-2.269-.235,2.152,2.152,0,0,1-.941-.941,5.347,5.347,0,0,1-.235-2.269V9.373A5.347,5.347,0,0,1,3.792,7.1a2.152,2.152,0,0,1,.941-.941A5.347,5.347,0,0,1,7,5.929H19.485a5.347,5.347,0,0,1,2.269.235,2.152,2.152,0,0,1,.941.941,5.347,5.347,0,0,1,.235,2.269v3.013M22.506,9.44l-5.442,3.628a9.733,9.733,0,0,1-2.817,1.56,4.306,4.306,0,0,1-2.006,0,9.733,9.733,0,0,1-2.817-1.56l-5.706-3.8" transform="translate(960.776 29.521)" fill="none" stroke="#3c3c3c" stroke-linecap="round" stroke-linejoin="round" stroke-width="1.6"/>
    <path id="mail-minus-svgrepo-com-2" data-name="mail-minus-svgrepo-com" d="M18.973,20.159h5.819" transform="translate(958.351 30.205)" fill="none" stroke="#ff7d81" stroke-linecap="round" stroke-linejoin="round" stroke-width="3"/>
  </g>
</svg>
