<svg xmlns="http://www.w3.org/2000/svg" xmlns:xlink="http://www.w3.org/1999/xlink" width="18" height="18" viewBox="0 0 18 18">
  <defs>
    <clipPath id="clip-path">
      <rect id="Rectangle_5915" data-name="Rectangle 5915" width="18" height="18" transform="translate(367 1044)" fill="#fff" stroke="#707070" stroke-width="1"/>
    </clipPath>
  </defs>
  <g id="Mask_Group_930" data-name="Mask Group 930" transform="translate(-367 -1044)" clip-path="url(#clip-path)">
    <g id="seat-svgrepo-com" transform="translate(368.307 1045.033)">
      <path id="Path_14483" data-name="Path 14483" d="M5.93,2.553H7.4a.724.724,0,0,1,.724.724V4.726L6.678,5.813" transform="translate(-1.79 -1.105)" fill="none" stroke="#a4a4a4" stroke-linecap="round" stroke-linejoin="round" stroke-width="1.2"/>
      <path id="Path_14482" data-name="Path 14482" d="M16.456,14.613v1.449a.724.724,0,0,1-.724.724H5.661a1.449,1.449,0,0,1-1.413-1.128L1.084,1.736A.724.724,0,0,1,1.79.851h2.5A.724.724,0,0,1,5,1.409L7.764,13.164h7.243A1.449,1.449,0,0,1,16.456,14.613Z" transform="translate(-1.065 -0.852)" fill="none" stroke="#eb6c6f" stroke-linecap="round" stroke-linejoin="round" stroke-width="1.2"/>
      <path id="Path_14484" data-name="Path 14484" d="M10.729,12.234H6.383" transform="translate(-1.858 -2.546)" fill="none" stroke="#a4a4a4" stroke-linecap="round" stroke-linejoin="round" stroke-width="1.2"/>
    </g>
  </g>
</svg>
