<svg xmlns="http://www.w3.org/2000/svg" xmlns:xlink="http://www.w3.org/1999/xlink" width="24" height="24" viewBox="0 0 24 24">
  <defs>
    <clipPath id="clip-path">
      <rect id="Rectangle_5977" data-name="Rectangle 5977" width="24" height="24" transform="translate(1036 4235)" fill="#fff" stroke="#707070" stroke-width="1"/>
    </clipPath>
  </defs>
  <g id="Mask_Group_855" data-name="Mask Group 855" transform="translate(-1036 -4235)" clip-path="url(#clip-path)">
    <path id="whatsapp-svgrepo-com" d="M26.4,9.48A11.775,11.775,0,0,0,18,6,11.91,11.91,0,0,0,7.68,23.835L6,30l6.3-1.65A11.884,11.884,0,0,0,26.4,9.48ZM18,27.795a9.869,9.869,0,0,1-5.04-1.38l-.36-.225-3.735.99.99-3.645-.24-.375A9.94,9.94,0,1,1,18,27.795Zm5.415-7.41c-.3-.15-1.755-.87-2.025-.96s-.48-.15-.675.15a13.506,13.506,0,0,1-.945,1.155c-.165.21-.345.225-.645,0A8,8,0,0,1,15.09,17.2c-.315-.525.3-.495.87-1.62a.57.57,0,0,0,0-.525c0-.15-.675-1.62-.915-2.205s-.48-.495-.675-.51h-.585a1.065,1.065,0,0,0-.795.375A3.285,3.285,0,0,0,12,15.255a5.73,5.73,0,0,0,1.215,3.075,13.335,13.335,0,0,0,5.085,4.5,5.776,5.776,0,0,0,3.57.75,3,3,0,0,0,1.995-1.41,2.43,2.43,0,0,0,.18-1.41A2.1,2.1,0,0,0,23.415,20.385Z" transform="translate(1030.008 4229)" fill="#fff" stroke="#451819" stroke-width="0.6"/>
  </g>
</svg>
